<svg xmlns="http://www.w3.org/2000/svg" viewBox="0 0 256 256">
<defs>
<linearGradient id="grad1" x1="0%" y1="0%" x2="100%" y2="100%">
<stop offset="0%" style="stop-color:#8B5CF6;stop-opacity:1"/>
<stop offset="100%" style="stop-color:#3B82F6;stop-opacity:1"/>
</linearGradient>
</defs>
<rect width="256" height="256" fill="#1a1a2e"/>
<path d="M128 40c-25 0-45 15-52 35-3-2-7-3-11-3-12 0-22 10-22 22 0 8 4 15 10 19-2 5-3 10-3 16 0 28 23 51 51 51 8 0 16-2 23-5 7 3 15 5 23 5 28 0 51-23 51-51 0-6-1-11-3-16 6-4 10-11 10-19 0-12-10-22-22-22-4 0-8 1-11 3-7-20-27-35-52-35z" fill="url(#grad1)"/>
<circle cx="110" cy="100" r="6" fill="#1a1a2e"/>
<circle cx="146" cy="100" r="6" fill="#1a1a2e"/>
<path d="M110 125c0-10 8-18 18-18s18 8 18 18" stroke="#1a1a2e" stroke-width="5" fill="none" stroke-linecap="round"/>
<path d="M70 180l20-25 18 15 22-20 20 12 18-15" stroke="#3B82F6" stroke-width="6" fill="none" stroke-linecap="round" stroke-linejoin="round"/>
<circle cx="90" cy="155" r="5" fill="#8B5CF6"/>
<circle cx="108" cy="170" r="5" fill="#8B5CF6"/>
<circle cx="130" cy="150" r="5" fill="#8B5CF6"/>
<circle cx="150" cy="162" r="5" fill="#8B5CF6"/>
<circle cx="168" cy="147" r="5" fill="#8B5CF6"/>
<path d="M175 135l8-8 5 5" stroke="#10B981" stroke-width="5" fill="none" stroke-linecap="round" stroke-linejoin="round"/>
</svg>